<svg version="1.1" id="Layer_1" xmlns="http://www.w3.org/2000/svg" xmlns:xlink="http://www.w3.org/1999/xlink" x="0px" y="0px"
	 width="100%" viewBox="0 0 410 312" enable-background="new 0 0 410 312" xml:space="preserve">
<path fill="#000000" opacity="1.000000" stroke="none" 
	d="
M1.000000,110.000000 
	C1.000000,73.345840 1.000000,37.191685 1.000000,1.018764 
	C137.606888,1.018764 274.213776,1.018764 410.910339,1.018764 
	C410.910339,104.904175 410.910339,208.808456 410.910339,312.856384 
	C274.333435,312.856384 137.666748,312.856384 1.000000,312.856384 
	C1.000000,245.452820 1.000000,177.976410 1.000000,110.000000 
M308.954468,215.037766 
	C308.954468,215.037766 308.881653,215.070312 309.175507,215.609329 
	C309.855682,216.365158 310.535858,217.120972 311.138977,218.031235 
	C311.138977,218.031235 311.188507,218.196594 311.449280,218.868057 
	C312.614716,220.300461 313.780151,221.732864 314.971649,223.602127 
	C314.971649,223.602127 315.123901,224.012451 314.987549,224.804153 
	C315.372070,226.864792 315.756622,228.925415 315.969025,231.779327 
	C316.015320,232.856400 316.061615,233.933456 316.001007,235.614075 
	C316.300323,236.092728 316.599670,236.571365 316.974426,237.826111 
	C320.515747,239.817780 323.862579,242.397079 327.648376,243.650131 
	C332.223785,245.164566 337.153076,247.035004 342.033173,244.414673 
	C347.086456,241.701340 352.052277,238.824020 357.027863,235.968765 
	C357.477386,235.710800 357.698883,235.073273 358.059357,234.639496 
	C361.857086,230.069229 366.065552,225.768997 369.298492,220.829910 
	C370.985870,218.252029 372.200653,214.225250 371.462097,211.424225 
	C369.639252,204.510757 366.889160,197.779419 363.909729,191.249603 
	C360.472809,183.717239 356.440125,176.453201 352.575562,169.120377 
	C346.943115,158.433105 340.485870,148.105408 335.768127,137.033081 
	C331.382904,126.741096 325.173828,117.823357 318.484894,109.182175 
	C312.268646,101.151604 305.144501,93.829803 298.589172,86.053429 
	C294.643005,81.372231 290.768951,76.093979 292.225128,69.716599 
	C294.622681,59.216427 298.119293,48.971321 300.859314,38.541645 
	C301.389526,36.523430 300.576508,34.152336 300.272186,30.677338 
	C293.971527,37.461029 288.967438,42.848724 283.963379,48.236423 
	C283.412933,47.932194 282.862488,47.627960 282.312042,47.323730 
	C283.312561,40.927773 284.408875,34.544159 285.235962,28.125845 
	C285.409454,26.779636 284.591980,25.305731 284.231140,23.890669 
	C283.475769,24.224781 282.720398,24.558893 281.265381,24.980478 
	C277.478882,29.310040 273.692352,33.639599 269.264740,38.236370 
	C268.924530,38.593922 268.509583,38.905163 268.255096,39.315842 
	C262.897339,47.962433 259.248260,48.053478 251.502869,41.376392 
	C246.479218,37.045639 240.682907,33.208920 234.604553,30.633539 
	C229.899445,28.639984 224.220276,28.945349 218.206833,28.065310 
	C218.150528,29.048031 217.748993,30.738508 218.090729,30.905193 
	C221.975204,32.799927 225.973221,34.461845 230.036530,36.637299 
	C230.212296,36.931610 230.471451,37.072193 230.975586,37.868702 
	C231.075134,39.235371 231.174667,40.602043 231.001846,42.770050 
	C226.877991,43.464775 222.364014,45.584949 218.704376,44.583420 
	C208.278076,41.730068 198.199692,37.605370 187.984528,33.980640 
	C186.048462,33.293652 184.112930,32.605198 181.833298,31.305904 
	C180.921021,31.169436 180.008759,31.032969 179.033264,30.921469 
	C179.033264,30.921469 179.081345,30.969511 179.018555,30.119431 
	C178.971176,28.417101 178.923798,26.714769 179.038010,24.202108 
	C179.084396,22.827566 179.130798,21.453022 179.794540,19.761953 
	C179.812943,17.850689 179.831345,15.939425 179.692078,13.241481 
	C174.797104,12.881280 169.902145,12.521079 164.080322,12.005797 
	C154.643097,12.003069 145.205887,11.994606 135.768661,12.002237 
	C133.775665,12.003849 131.250702,11.603307 133.186447,15.692994 
	C135.137802,18.376886 138.520874,20.927858 138.784592,23.768427 
	C139.757126,34.243801 139.714996,44.814514 140.015915,55.350479 
	C140.120041,58.995979 140.013168,62.649113 140.176361,66.290977 
	C140.482758,73.128174 140.915619,79.959702 141.295410,86.785004 
	C127.643578,86.785004 114.909363,86.785004 102.151680,86.785004 
	C102.151680,85.056351 102.151680,83.566620 102.880913,81.596458 
	C102.920410,65.197937 102.974068,48.799397 102.958321,32.400925 
	C102.957520,31.564840 102.359795,30.729330 102.294800,29.174995 
	C102.823860,26.788378 103.352921,24.401758 104.046532,21.616655 
	C104.046532,21.616655 104.058739,21.185705 104.734573,20.995142 
	C106.215439,19.364904 107.696312,17.734665 109.097771,16.081881 
	C109.097771,16.081881 109.099510,16.164406 109.715271,15.829174 
	C109.486160,14.847723 109.257042,13.866272 108.576843,12.141278 
	C93.536110,12.095612 78.495369,12.034562 63.454666,12.044309 
	C62.595333,12.044865 61.736374,12.623974 60.201538,13.213713 
	C57.070908,16.615463 60.401661,18.635000 62.025547,21.885992 
	C62.683743,30.031605 63.790359,38.170628 63.910194,46.324154 
	C64.191277,65.448555 64.122414,84.580856 63.971043,103.708191 
	C63.749180,131.742325 63.346443,159.775131 62.952003,187.807526 
	C62.932549,189.190094 62.257214,190.563431 61.244442,192.293991 
	C60.835415,194.805252 60.426384,197.316498 60.492161,199.993713 
	C60.654922,199.953506 60.817688,199.913284 61.909763,200.021957 
	C69.923286,200.055252 77.936806,200.088547 86.324318,200.791809 
	C88.230675,200.559647 90.137024,200.327469 92.886040,200.035355 
	C94.574936,200.062439 96.263840,200.089523 98.390518,200.813370 
	C101.265816,200.560501 104.141106,200.307632 107.767761,199.995544 
	C108.457138,199.619507 109.146507,199.243484 109.835884,198.867447 
	C108.585442,197.528976 107.335007,196.190506 106.067924,194.932541 
	C106.067924,194.932541 106.148399,194.915741 106.016029,194.227600 
	C105.372192,193.768341 104.728363,193.309097 104.068810,192.930206 
	C104.068810,192.930206 104.149216,192.914658 103.951546,192.092697 
	C103.637360,190.517746 103.053383,188.943405 103.049911,187.367767 
	C103.005577,167.283295 103.044479,147.198654 103.481812,126.972580 
	C103.902870,126.567291 104.323929,126.161995 105.527916,125.907349 
	C107.683952,125.868301 109.839981,125.829262 112.840187,125.958031 
	C114.556175,125.900970 116.272156,125.843903 118.915108,125.941589 
	C125.280487,125.887360 131.645874,125.833138 138.845596,125.982445 
	C139.562897,129.834213 140.714935,133.664719 140.904709,137.542297 
	C141.270676,145.019852 141.092957,152.524033 141.005463,160.801025 
	C141.052856,161.857330 141.100235,162.913651 140.993378,164.728165 
	C140.754593,165.709381 140.515823,166.690582 140.273346,167.723145 
	C140.273346,167.723145 140.263428,167.773666 140.040451,168.298523 
	C140.095474,168.858307 140.150497,169.418076 140.072205,170.649597 
	C140.116867,171.101746 140.161514,171.553909 140.027649,172.572266 
	C140.100204,172.957336 140.172760,173.342407 140.074478,174.478729 
	C140.125565,176.039429 140.176636,177.600143 140.051956,179.936066 
	C140.362762,185.161926 140.285522,190.450424 141.115662,195.592438 
	C141.705948,199.248672 142.637726,203.476105 144.942245,206.118469 
	C153.868011,216.352753 159.262009,228.509979 161.546616,241.308075 
	C163.293854,251.095901 161.304794,261.600586 160.571442,271.757080 
	C160.272919,275.891266 158.612305,279.912323 158.101700,284.050293 
	C157.647827,287.728333 158.373001,287.965942 162.626190,285.756348 
	C164.111877,283.846832 165.597565,281.937286 167.553619,279.899109 
	C167.855392,279.711212 168.013626,279.439636 168.604538,278.825104 
	C168.778992,278.228943 168.953445,277.632751 169.689087,276.783936 
	C170.136383,275.886597 170.583664,274.989258 171.679749,273.763641 
	C172.383850,272.293701 173.087936,270.823792 174.007065,268.850250 
	C174.003922,268.667725 174.000793,268.485229 174.581879,267.972900 
	C175.310364,265.318787 176.038864,262.664673 176.949722,259.261261 
	C177.007401,256.859253 177.065094,254.457230 177.562256,251.994385 
	C177.562256,251.994385 177.980225,251.845673 178.703659,251.777756 
	C179.509262,249.538208 180.314850,247.298676 181.754837,244.791275 
	C184.121307,242.593857 187.183945,240.795517 188.717407,238.120575 
	C192.573486,231.394028 195.182281,223.914978 199.346680,217.413773 
	C203.097885,211.557617 205.386215,204.861069 209.951935,199.515976 
	C210.216797,199.205917 210.074722,198.548294 210.703354,197.763535 
	C211.502502,196.520004 212.301651,195.276474 213.722458,193.760620 
	C214.188034,192.524078 214.653610,191.287552 215.711945,189.760117 
	C216.839996,188.192200 217.968033,186.624283 219.020523,185.019974 
	C219.020523,185.019974 219.056488,185.095749 219.689667,184.801208 
	C222.141479,182.238754 224.593292,179.676300 227.912155,177.000244 
	C236.021820,175.928070 242.218597,180.669250 247.534149,185.217300 
	C253.617126,190.421936 260.440948,191.364655 267.472595,191.844391 
	C275.195618,192.371292 282.244171,193.951584 288.851135,198.198196 
	C295.919952,202.741699 302.502228,207.751282 308.047180,214.559616 
	C308.346558,214.745407 308.645935,214.931198 308.954468,215.037766 
z"/>
<path fill="#DDE1E0" opacity="1.000000" stroke="none" 
	d="
M173.997681,268.302734 
	C174.000793,268.485229 174.003922,268.667725 173.479370,269.044647 
	C172.311432,270.856689 171.671204,272.474304 171.030960,274.091949 
	C170.583664,274.989258 170.136383,275.886597 169.153198,277.082031 
	C168.420959,277.948212 168.224625,278.516327 168.028290,279.084412 
	C168.013626,279.439636 167.855392,279.711212 166.951080,279.962128 
	C163.324234,280.871216 160.390930,281.783539 162.000549,286.001160 
	C158.373001,287.965942 157.647827,287.728333 158.101700,284.050293 
	C158.612305,279.912323 160.272919,275.891266 160.571442,271.757080 
	C161.304794,261.600586 163.293854,251.095901 161.546616,241.308075 
	C159.262009,228.509979 153.868011,216.352753 144.942245,206.118469 
	C142.637726,203.476105 141.705948,199.248672 141.115662,195.592438 
	C140.285522,190.450424 140.362762,185.161926 140.531128,179.321259 
	C140.765900,175.028229 140.521469,171.350021 140.277054,167.671799 
	C140.515823,166.690582 140.754593,165.709381 141.284271,164.115723 
	C141.430313,162.341232 141.285492,161.179199 141.140671,160.017166 
	C141.092957,152.524033 141.270676,145.019852 140.904709,137.542297 
	C140.714935,133.664719 139.562897,129.834213 138.611511,125.663315 
	C138.499985,124.960144 138.629135,124.577744 138.725739,124.187294 
	C138.730606,124.167625 138.453995,124.028374 138.308578,124.028603 
	C127.887596,124.045052 117.466179,124.034897 107.046555,124.165749 
	C106.272827,124.175461 105.511871,125.202568 104.744987,125.756706 
	C104.323929,126.161995 103.902870,126.567291 103.122955,126.760818 
	C102.172989,127.277252 101.068779,128.003220 101.065598,128.733978 
	C100.980103,148.341217 100.926338,167.949860 101.152420,187.554993 
	C101.173157,189.352829 103.104866,191.128632 104.149216,192.914658 
	C104.149216,192.914658 104.068810,192.930206 104.089081,193.232895 
	C104.789032,193.995636 105.468719,194.455688 106.148407,194.915741 
	C106.148399,194.915741 106.067924,194.932541 106.071045,195.249329 
	C106.377220,196.708267 106.680283,197.850433 106.542892,198.992371 
	C103.385864,199.366974 100.669304,199.741791 97.952736,200.116608 
	C96.263840,200.089523 94.574936,200.062439 92.204407,199.794556 
	C89.665291,199.743103 87.807808,199.932465 85.950333,200.121826 
	C77.936806,200.088547 69.923286,200.055252 61.352962,199.817322 
	C60.487598,199.425369 60.227997,199.497055 60.017353,199.827759 
	C60.426384,197.316498 60.835415,194.805252 61.873940,192.220673 
	C63.662525,190.350098 65.661407,188.629303 65.833153,186.742203 
	C66.521866,179.174866 66.644188,171.556000 66.977882,163.492157 
	C66.974922,124.372910 66.970009,85.717690 66.914108,46.644203 
	C66.576317,40.650539 66.560501,35.042595 65.896347,29.512516 
	C65.525421,26.423973 66.614258,22.226416 61.878128,21.051203 
	C60.401661,18.635000 57.070908,16.615463 60.911125,13.241583 
	C62.575577,13.513837 63.524685,13.944630 64.486183,13.974331 
	C76.737045,14.352783 88.990646,14.643760 101.240860,15.040156 
	C103.173859,15.102704 105.093582,15.575711 106.870895,16.177433 
	C105.834480,18.059187 104.946609,19.622446 104.058739,21.185703 
	C104.058739,21.185705 104.046532,21.616655 103.596848,21.863232 
	C102.423904,25.408939 101.700645,28.708071 100.969978,32.475365 
	C100.962639,47.466869 100.920311,61.990490 101.015366,76.513206 
	C101.027519,78.370163 101.755379,80.222443 102.151680,82.076889 
	C102.151680,83.566620 102.151680,85.056351 102.151680,86.785004 
	C114.909363,86.785004 127.643578,86.785004 141.295410,86.785004 
	C140.915619,79.959702 140.482758,73.128174 140.176361,66.290977 
	C140.013168,62.649113 140.120041,58.995979 140.015915,55.350479 
	C139.714996,44.814514 139.757126,34.243801 138.784592,23.768427 
	C138.520874,20.927858 135.137802,18.376886 133.627289,15.345160 
	C138.752045,14.978191 143.435959,14.959058 148.575165,14.939976 
	C158.685974,14.957812 168.341476,14.975596 178.000275,15.391134 
	C178.394745,17.218752 178.785965,18.648617 179.177185,20.078480 
	C179.130798,21.453022 179.084396,22.827566 178.632904,24.679115 
	C178.512299,27.093918 178.796814,29.031715 179.081345,30.969511 
	C179.081345,30.969511 179.033264,30.921469 178.884949,31.294685 
	C178.736649,39.349201 178.736649,47.030502 178.736649,54.711803 
	C179.158920,54.705341 179.581192,54.698879 180.003464,54.692413 
	C180.003464,48.793812 179.842972,42.888111 180.103180,37.001011 
	C180.179276,35.279289 181.452591,33.610481 182.177155,31.917419 
	C184.112930,32.605198 186.048462,33.293652 187.984528,33.980640 
	C198.199692,37.605370 208.278076,41.730068 218.704376,44.583420 
	C222.364014,45.584949 226.877991,43.464775 231.483841,42.345856 
	C235.789780,39.304031 233.438751,38.149117 230.813980,37.059055 
	C230.471451,37.072193 230.212296,36.931610 229.969696,36.053215 
	C228.377457,34.366173 226.889099,33.206837 225.317520,32.174168 
	C223.237137,30.807156 221.091644,29.539240 218.974121,28.228737 
	C224.220276,28.945349 229.899445,28.639984 234.604553,30.633539 
	C240.682907,33.208920 246.479218,37.045639 251.502869,41.376392 
	C259.248260,48.053478 262.897339,47.962433 268.255096,39.315842 
	C268.509583,38.905163 268.924530,38.593922 269.961914,38.103638 
	C274.427765,33.611603 278.196381,29.252310 281.965027,24.893009 
	C282.720398,24.558893 283.475769,24.224781 284.231140,23.890669 
	C284.591980,25.305731 285.409454,26.779636 285.235962,28.125845 
	C284.408875,34.544159 283.312561,40.927773 282.312042,47.323730 
	C282.862488,47.627960 283.412933,47.932194 283.963379,48.236423 
	C288.967438,42.848724 293.971527,37.461029 300.272186,30.677338 
	C300.576508,34.152336 301.389526,36.523430 300.859314,38.541645 
	C298.119293,48.971321 294.622681,59.216427 292.225128,69.716599 
	C290.768951,76.093979 294.643005,81.372231 298.589172,86.053429 
	C305.144501,93.829803 312.268646,101.151604 318.484894,109.182175 
	C325.173828,117.823357 331.382904,126.741096 335.768127,137.033081 
	C340.485870,148.105408 346.943115,158.433105 352.575562,169.120377 
	C356.440125,176.453201 360.472809,183.717239 363.909729,191.249603 
	C366.889160,197.779419 369.639252,204.510757 371.462097,211.424225 
	C372.200653,214.225250 370.985870,218.252029 369.298492,220.829910 
	C366.065552,225.768997 361.857086,230.069229 358.059357,234.639496 
	C357.698883,235.073273 357.477386,235.710800 357.027863,235.968765 
	C352.052277,238.824020 347.086456,241.701340 342.033173,244.414673 
	C337.153076,247.035004 332.223785,245.164566 327.648376,243.650131 
	C323.862579,242.397079 320.515747,239.817780 317.155090,237.269836 
	C316.926483,236.145889 316.517181,235.578217 316.107910,235.010529 
	C316.061615,233.933456 316.015320,232.856400 316.389648,231.294250 
	C318.816467,227.906372 317.839386,225.743759 315.123901,224.012451 
	C315.123901,224.012451 314.971649,223.602127 314.975159,222.980927 
	C313.715271,220.972000 312.451904,219.584290 311.188507,218.196594 
	C311.188507,218.196594 311.138977,218.031235 311.358643,217.569092 
	C310.679413,216.428070 309.780518,215.749191 308.881653,215.070312 
	C308.881653,215.070312 308.954468,215.037766 308.866272,214.853058 
	C308.647430,214.355652 308.424011,214.138184 308.107910,214.015930 
	C302.502228,207.751282 295.919952,202.741699 288.851135,198.198196 
	C282.244171,193.951584 275.195618,192.371292 267.472595,191.844391 
	C260.440948,191.364655 253.617126,190.421936 247.534149,185.217300 
	C242.218597,180.669250 236.021820,175.928070 227.419891,176.740601 
	C226.450958,176.137405 225.689041,175.399994 225.539566,175.508240 
	C222.227859,177.906540 218.446289,180.039337 219.056488,185.095749 
	C219.056488,185.095749 219.020523,185.019974 218.697479,185.029358 
	C217.289368,186.709518 216.204300,188.380280 215.119217,190.051025 
	C214.653610,191.287552 214.188034,192.524078 213.039261,193.894928 
	C209.889801,194.414307 207.912704,195.071014 210.122025,198.052414 
	C210.074722,198.548294 210.216797,199.205917 209.951935,199.515976 
	C205.386215,204.861069 203.097885,211.557617 199.346680,217.413773 
	C195.182281,223.914978 192.573486,231.394028 188.717407,238.120575 
	C187.183945,240.795517 184.121307,242.593857 181.144760,244.620178 
	C180.355011,235.922348 180.301910,227.389801 179.912125,218.872681 
	C179.806656,216.568222 178.682129,214.310394 178.019226,211.560608 
	C178.013107,179.155502 178.013107,147.220963 178.013107,115.286423 
	C177.676300,115.284798 177.339493,115.283173 177.002686,115.281548 
	C177.002686,117.051956 177.002762,118.822372 177.002670,120.592781 
	C177.001389,147.742035 177.111465,174.891922 176.954971,202.040283 
	C176.867813,217.160721 176.301620,232.278030 176.059082,247.398468 
	C176.034286,248.944641 176.750458,250.502670 177.122787,252.055206 
	C177.065094,254.457230 177.007401,256.859253 176.533173,259.650085 
	C173.585236,262.541138 172.629745,266.267548 173.997681,268.302734 
M304.777344,133.988312 
	C305.833832,133.896866 306.890350,133.805405 308.990479,133.623611 
	C304.474884,128.955887 300.645050,124.996994 296.815216,121.038101 
	C296.539246,127.204498 298.864594,131.390411 304.777344,133.988312 
M266.446411,45.486076 
	C266.446411,45.486076 266.518921,45.448692 266.446411,45.486076 
z"/>
<path fill="#D1D4D3" opacity="1.000000" stroke="none" 
	d="
M61.951836,21.468597 
	C66.614258,22.226416 65.525421,26.423973 65.896347,29.512516 
	C66.560501,35.042595 66.576317,40.650539 66.647614,46.952499 
	C66.290718,48.487904 66.026062,49.296677 66.025650,50.105591 
	C66.006676,86.814293 66.001411,123.523026 66.052856,160.231659 
	C66.054596,161.473602 66.654724,162.714691 66.975937,163.956177 
	C66.644188,171.556000 66.521866,179.174866 65.833153,186.742203 
	C65.661407,188.629303 63.662525,190.350098 62.195358,192.044189 
	C62.257214,190.563431 62.932549,189.190094 62.952003,187.807526 
	C63.346443,159.775131 63.749180,131.742325 63.971043,103.708191 
	C64.122414,84.580856 64.191277,65.448555 63.910194,46.324154 
	C63.790359,38.170628 62.683743,30.031605 61.951836,21.468597 
z"/>
<path fill="#EBEEED" opacity="1.000000" stroke="none" 
	d="
M177.342529,252.024796 
	C176.750458,250.502670 176.034286,248.944641 176.059082,247.398468 
	C176.301620,232.278030 176.867813,217.160721 176.954971,202.040283 
	C177.111465,174.891922 177.001389,147.742035 177.002670,120.592781 
	C177.002762,118.822372 177.002686,117.051956 177.002686,115.281548 
	C177.339493,115.283173 177.676300,115.284798 178.013107,115.286423 
	C178.013107,147.220963 178.013107,179.155502 178.010849,212.025543 
	C177.999146,225.922592 177.989685,238.884125 177.980225,251.845673 
	C177.980225,251.845673 177.562256,251.994385 177.342529,252.024796 
z"/>
<path fill="#CACDCC" opacity="1.000000" stroke="none" 
	d="
M107.019440,15.858939 
	C105.093582,15.575711 103.173859,15.102704 101.240860,15.040156 
	C88.990646,14.643760 76.737045,14.352783 64.486183,13.974331 
	C63.524685,13.944630 62.575577,13.513837 61.248978,13.101638 
	C61.736374,12.623974 62.595333,12.044865 63.454666,12.044309 
	C78.495369,12.034562 93.536110,12.095612 108.779366,12.922655 
	C109.021095,14.524158 109.060303,15.344282 109.099510,16.164406 
	C109.099510,16.164406 109.097771,16.081881 108.786957,15.992477 
	C107.990578,15.888362 107.505013,15.873651 107.019440,15.858939 
z"/>
<path fill="#F9FBFA" opacity="1.000000" stroke="none" 
	d="
M104.050385,192.503677 
	C103.104866,191.128632 101.173157,189.352829 101.152420,187.554993 
	C100.926338,167.949860 100.980103,148.341217 101.065598,128.733978 
	C101.068779,128.003220 102.172989,127.277252 102.913162,126.831543 
	C103.044479,147.198654 103.005577,167.283295 103.049911,187.367767 
	C103.053383,188.943405 103.637360,190.517746 104.050385,192.503677 
z"/>
<path fill="#FEFEFE" opacity="1.000000" stroke="none" 
	d="
M102.516296,81.836670 
	C101.755379,80.222443 101.027519,78.370163 101.015366,76.513206 
	C100.920311,61.990490 100.962639,47.466869 101.208351,32.279404 
	C101.649422,31.041367 101.844704,30.467459 102.039986,29.893551 
	C102.359795,30.729330 102.957520,31.564840 102.958321,32.400925 
	C102.974068,48.799397 102.920410,65.197937 102.516296,81.836670 
z"/>
<path fill="#D4D8D7" opacity="1.000000" stroke="none" 
	d="
M178.341949,251.811707 
	C177.989685,238.884125 177.999146,225.922592 178.016968,212.496109 
	C178.682129,214.310394 179.806656,216.568222 179.912125,218.872681 
	C180.301910,227.389801 180.355011,235.922348 180.827576,244.754120 
	C180.314850,247.298676 179.509262,249.538208 178.341949,251.811707 
z"/>
<path fill="#CBD0CF" opacity="1.000000" stroke="none" 
	d="
M148.119888,14.939924 
	C143.435959,14.959058 138.752045,14.978191 133.611252,15.005636 
	C131.250702,11.603307 133.775665,12.003849 135.768661,12.002237 
	C145.205887,11.994606 154.643097,12.003069 164.542816,12.375817 
	C165.011185,13.135758 165.017075,13.525679 164.553894,13.941821 
	C158.763184,14.292003 153.441528,14.615963 148.119888,14.939924 
z"/>
<path fill="#F2F6F5" opacity="1.000000" stroke="none" 
	d="
M105.136452,125.832031 
	C105.511871,125.202568 106.272827,124.175461 107.046555,124.165749 
	C117.466179,124.034897 127.887596,124.045052 138.308578,124.028603 
	C138.453995,124.028374 138.730606,124.167625 138.725739,124.187294 
	C138.629135,124.577744 138.499985,124.960144 138.194336,125.561539 
	C131.645874,125.833138 125.280487,125.887360 118.174210,125.643036 
	C115.620888,125.493065 113.808449,125.641632 111.996017,125.790207 
	C109.839981,125.829262 107.683952,125.868301 105.136452,125.832031 
z"/>
<path fill="#D1D4D3" opacity="1.000000" stroke="none" 
	d="
M182.005219,31.611660 
	C181.452591,33.610481 180.179276,35.279289 180.103180,37.001011 
	C179.842972,42.888111 180.003464,48.793812 180.003464,54.692413 
	C179.581192,54.698879 179.158920,54.705341 178.736649,54.711803 
	C178.736649,47.030502 178.736649,39.349201 178.916565,31.282202 
	C180.008759,31.032969 180.921021,31.169436 182.005219,31.611660 
z"/>
<path fill="#EBEEED" opacity="1.000000" stroke="none" 
	d="
M281.615204,24.936745 
	C278.196381,29.252310 274.427765,33.611603 270.282471,37.970032 
	C273.692352,33.639599 277.478882,29.310040 281.615204,24.936745 
z"/>
<path fill="#F7F9F8" opacity="1.000000" stroke="none" 
	d="
M218.590485,28.147022 
	C221.091644,29.539240 223.237137,30.807156 225.317520,32.174168 
	C226.889099,33.206837 228.377457,34.366173 229.921860,35.827579 
	C225.973221,34.461845 221.975204,32.799927 218.090729,30.905193 
	C217.748993,30.738508 218.150528,29.048031 218.590485,28.147022 
z"/>
<path fill="#D4D8D7" opacity="1.000000" stroke="none" 
	d="
M165.022964,13.915600 
	C165.017075,13.525679 165.011185,13.135758 165.006226,12.453358 
	C169.902145,12.521079 174.797104,12.881280 179.388702,13.656367 
	C178.831253,14.095425 178.577194,14.119596 177.922394,14.119640 
	C173.355438,14.035542 169.189209,13.975571 165.022964,13.915600 
z"/>
<path fill="#EBEEED" opacity="1.000000" stroke="none" 
	d="
M219.373077,184.948486 
	C218.446289,180.039337 222.227859,177.906540 225.539566,175.508240 
	C225.689041,175.399994 226.450958,176.137405 226.986359,176.797394 
	C224.593292,179.676300 222.141479,182.238754 219.373077,184.948486 
z"/>
<path fill="#E7EAEA" opacity="1.000000" stroke="none" 
	d="
M174.289780,268.137817 
	C172.629745,266.267548 173.585236,262.541138 176.441986,260.024750 
	C176.038864,262.664673 175.310364,265.318787 174.289780,268.137817 
z"/>
<path fill="#F7F9F8" opacity="1.000000" stroke="none" 
	d="
M102.167389,29.534275 
	C101.844704,30.467459 101.649422,31.041367 101.215759,31.811237 
	C101.700645,28.708071 102.423904,25.408939 103.514572,22.062473 
	C103.352921,24.401758 102.823860,26.788378 102.167389,29.534275 
z"/>
<path fill="#E5E8E7" opacity="1.000000" stroke="none" 
	d="
M98.171631,200.464996 
	C100.669304,199.741791 103.385864,199.366974 106.555054,199.257843 
	C107.010582,199.700623 107.013496,199.877686 107.016403,200.054764 
	C104.141106,200.307632 101.265816,200.560501 98.171631,200.464996 
z"/>
<path fill="#E7EAEA" opacity="1.000000" stroke="none" 
	d="
M162.313370,285.878754 
	C160.390930,281.783539 163.324234,280.871216 166.715912,280.026428 
	C165.597565,281.937286 164.111877,283.846832 162.313370,285.878754 
z"/>
<path fill="#F0F3F3" opacity="1.000000" stroke="none" 
	d="
M178.323120,14.143768 
	C178.577194,14.119596 178.831253,14.095425 179.467529,14.049707 
	C179.831345,15.939425 179.812943,17.850689 179.485870,19.920218 
	C178.785965,18.648617 178.394745,17.218752 178.130798,15.276829 
	C178.467911,14.577355 178.489609,14.370355 178.323120,14.143768 
z"/>
<path fill="#F0F3F3" opacity="1.000000" stroke="none" 
	d="
M315.055725,224.408295 
	C317.839386,225.743759 318.816467,227.906372 316.475708,230.897614 
	C315.756622,228.925415 315.372070,226.864792 315.055725,224.408295 
z"/>
<path fill="#F7F9F8" opacity="1.000000" stroke="none" 
	d="
M106.870895,16.177433 
	C107.505013,15.873651 107.990578,15.888362 108.826660,16.003750 
	C107.696312,17.734665 106.215439,19.364904 104.396652,21.090424 
	C104.946609,19.622446 105.834480,18.059187 106.870895,16.177433 
z"/>
<path fill="#E7EAEA" opacity="1.000000" stroke="none" 
	d="
M140.275208,167.697479 
	C140.521469,171.350021 140.765900,175.028229 140.619019,178.933655 
	C140.176636,177.600143 140.125565,176.039429 140.310196,173.826202 
	C140.432678,172.784454 140.319427,172.395264 140.206177,172.006058 
	C140.161514,171.553909 140.116867,171.101746 140.319855,170.066895 
	C140.466141,168.914001 140.364792,168.343842 140.263428,167.773666 
	C140.263428,167.773666 140.273346,167.723145 140.275208,167.697479 
z"/>
<path fill="#F7F9F8" opacity="1.000000" stroke="none" 
	d="
M230.894775,37.463879 
	C233.438751,38.149117 235.789780,39.304031 231.620026,41.945190 
	C231.174667,40.602043 231.075134,39.235371 230.894775,37.463879 
z"/>
<path fill="#E5E8E7" opacity="1.000000" stroke="none" 
	d="
M86.137329,200.456818 
	C87.807808,199.932465 89.665291,199.743103 91.783073,199.824524 
	C90.137024,200.327469 88.230675,200.559647 86.137329,200.456818 
z"/>
<path fill="#F9FBFA" opacity="1.000000" stroke="none" 
	d="
M107.392082,200.025146 
	C107.013496,199.877686 107.010582,199.700623 106.995514,199.258072 
	C106.680283,197.850433 106.377220,196.708267 106.079361,195.209076 
	C107.335007,196.190506 108.585442,197.528976 109.835884,198.867447 
	C109.146507,199.243484 108.457138,199.619507 107.392082,200.025146 
z"/>
<path fill="#EBEEED" opacity="1.000000" stroke="none" 
	d="
M215.415588,189.905579 
	C216.204300,188.380280 217.289368,186.709518 218.735260,185.047562 
	C217.968033,186.624283 216.839996,188.192200 215.415588,189.905579 
z"/>
<path fill="#EBEEED" opacity="1.000000" stroke="none" 
	d="
M210.412689,197.907974 
	C207.912704,195.071014 209.889801,194.414307 212.728424,194.031097 
	C212.301651,195.276474 211.502502,196.520004 210.412689,197.907974 
z"/>
<path fill="#F0F3F3" opacity="1.000000" stroke="none" 
	d="
M179.049957,30.544472 
	C178.796814,29.031715 178.512299,27.093918 178.552094,25.084280 
	C178.923798,26.714769 178.971176,28.417101 179.049957,30.544472 
z"/>
<path fill="#F0F3F3" opacity="1.000000" stroke="none" 
	d="
M311.318909,218.532318 
	C312.451904,219.584290 313.715271,220.972000 314.962097,222.762482 
	C313.780151,221.732864 312.614716,220.300461 311.318909,218.532318 
z"/>
<path fill="#E7EAEA" opacity="1.000000" stroke="none" 
	d="
M171.355362,273.927795 
	C171.671204,272.474304 172.311432,270.856689 173.371857,269.296448 
	C173.087936,270.823792 172.383850,272.293701 171.355362,273.927795 
z"/>
<path fill="#DDE1E0" opacity="1.000000" stroke="none" 
	d="
M112.418106,125.874115 
	C113.808449,125.641632 115.620888,125.493065 117.710732,125.565666 
	C116.272156,125.843903 114.556175,125.900970 112.418106,125.874115 
z"/>
<path fill="#F0F3F3" opacity="1.000000" stroke="none" 
	d="
M309.028564,215.339813 
	C309.780518,215.749191 310.679413,216.428070 311.397156,217.491867 
	C310.535858,217.120972 309.855682,216.365158 309.028564,215.339813 
z"/>
<path fill="#F9FBFA" opacity="1.000000" stroke="none" 
	d="
M106.082214,194.571671 
	C105.468719,194.455688 104.789032,193.995636 104.096939,193.192719 
	C104.728363,193.309097 105.372192,193.768341 106.082214,194.571671 
z"/>
<path fill="#E7EAEA" opacity="1.000000" stroke="none" 
	d="
M141.073059,160.409088 
	C141.285492,161.179199 141.430313,162.341232 141.361389,163.736603 
	C141.100235,162.913651 141.052856,161.857330 141.073059,160.409088 
z"/>
<path fill="#F0F3F3" opacity="1.000000" stroke="none" 
	d="
M316.054443,235.312302 
	C316.517181,235.578217 316.926483,236.145889 317.117401,236.881775 
	C316.599670,236.571365 316.300323,236.092728 316.054443,235.312302 
z"/>
<path fill="#F7F9F8" opacity="1.000000" stroke="none" 
	d="
M109.407394,15.996790 
	C109.060303,15.344282 109.021095,14.524158 109.004906,13.294427 
	C109.257042,13.866272 109.486160,14.847723 109.407394,15.996790 
z"/>
<path fill="#E7EAEA" opacity="1.000000" stroke="none" 
	d="
M168.316406,278.954773 
	C168.224625,278.516327 168.420959,277.948212 168.872589,277.208374 
	C168.953445,277.632751 168.778992,278.228943 168.316406,278.954773 
z"/>
<path fill="#DDE1E0" opacity="1.000000" stroke="none" 
	d="
M140.151947,168.036102 
	C140.364792,168.343842 140.466141,168.914001 140.386520,169.731018 
	C140.150497,169.418076 140.095474,168.858307 140.151947,168.036102 
z"/>
<path fill="#F0F3F3" opacity="1.000000" stroke="none" 
	d="
M308.077545,214.287781 
	C308.424011,214.138184 308.647430,214.355652 308.861694,214.892670 
	C308.645935,214.931198 308.346558,214.745407 308.077545,214.287781 
z"/>
<path fill="#E5E8E7" opacity="1.000000" stroke="none" 
	d="
M60.254757,199.910736 
	C60.227997,199.497055 60.487598,199.425369 60.888306,199.742889 
	C60.817688,199.913284 60.654922,199.953506 60.254757,199.910736 
z"/>
<path fill="#DDE1E0" opacity="1.000000" stroke="none" 
	d="
M140.116913,172.289154 
	C140.319427,172.395264 140.432678,172.784454 140.395630,173.450562 
	C140.172760,173.342407 140.100204,172.957336 140.116913,172.289154 
z"/>
<path fill="#C1C5C4" opacity="1.000000" stroke="none" 
	d="
M66.977890,163.492157 
	C66.654724,162.714691 66.054596,161.473602 66.052856,160.231659 
	C66.001411,123.523026 66.006676,86.814293 66.025650,50.105591 
	C66.026062,49.296677 66.290718,48.487904 66.698593,47.370766 
	C66.970009,85.717690 66.974922,124.372910 66.977890,163.492157 
z"/>
<path fill="#000000" opacity="1.000000" stroke="none" 
	d="
M304.426819,133.813751 
	C298.864594,131.390411 296.539246,127.204498 296.815216,121.038101 
	C300.645050,124.996994 304.474884,128.955887 308.990479,133.623611 
	C306.890350,133.805405 305.833832,133.896866 304.426819,133.813751 
z"/>
<path fill="#ACAFAE" opacity="1.000000" stroke="none" 
	d="
M177.922394,14.119640 
	C178.489609,14.370355 178.467911,14.577355 178.127533,14.879076 
	C168.341476,14.975596 158.685974,14.957812 148.575165,14.939976 
	C153.441528,14.615963 158.763184,14.292003 164.553894,13.941821 
	C169.189209,13.975571 173.355438,14.035542 177.922394,14.119640 
z"/>
<path fill="#EBEEED" opacity="1.000000" stroke="none" 
	d="
M266.482666,45.467384 
	C266.518921,45.448692 266.446411,45.486076 266.482666,45.467384 
z"/>
</svg>